<svg width="20" height="20" viewBox="0 0 20 20" fill="none" xmlns="http://www.w3.org/2000/svg">
<path d="M18.3337 10C18.3337 14.6025 14.6028 18.3333 10.0003 18.3333C5.39783 18.3333 1.66699 14.6025 1.66699 10C1.66699 5.3975 5.39783 1.66666 10.0003 1.66666C14.6028 1.66666 18.3337 5.3975 18.3337 10Z" stroke="#BABABA" stroke-linecap="round" stroke-linejoin="round"/>
<path d="M4.58398 15.8333L5.05065 15.0167C5.41507 14.3787 5.9417 13.8484 6.57715 13.4796C7.2126 13.1108 7.93427 12.9166 8.66898 12.9167H11.3323C12.067 12.9166 12.7887 13.1108 13.4242 13.4796C14.0596 13.8484 14.5862 14.3787 14.9507 15.0167L15.4173 15.8333M12.2923 7.91667C12.2923 8.52445 12.0509 9.10735 11.6211 9.53712C11.1913 9.96689 10.6084 10.2083 10.0007 10.2083C9.39286 10.2083 8.80997 9.96689 8.3802 9.53712C7.95043 9.10735 7.70898 8.52445 7.70898 7.91667C7.70898 7.30888 7.95043 6.72598 8.3802 6.29621C8.80997 5.86644 9.39286 5.625 10.0007 5.625C10.6084 5.625 11.1913 5.86644 11.6211 6.29621C12.0509 6.72598 12.2923 7.30888 12.2923 7.91667Z" stroke="#BABABA" stroke-linecap="round" stroke-linejoin="round"/>
</svg>
