<svg width="91" height="32" viewBox="0 0 91 32" fill="none" xmlns="http://www.w3.org/2000/svg">
<path d="M4 16C4 14.4241 4.31039 12.8637 4.91345 11.4078C5.5165 9.95189 6.40042 8.62902 7.51472 7.51472C8.62902 6.40042 9.95189 5.5165 11.4078 4.91345C12.8637 4.31039 14.4241 4 16 4C17.5759 4 19.1363 4.31039 20.5922 4.91345C22.0481 5.5165 23.371 6.40042 24.4853 7.51472C25.5996 8.62902 26.4835 9.95189 27.0866 11.4078C27.6896 12.8637 28 14.4241 28 16C28 19.1826 26.7357 22.2348 24.4853 24.4853C22.2348 26.7357 19.1826 28 16 28C12.8174 28 9.76515 26.7357 7.51472 24.4853C5.26428 22.2348 4 19.1826 4 16Z" fill="#158027"/>
<path fill-rule="evenodd" clip-rule="evenodd" d="M16 24.5C18.2543 24.5 20.4163 23.6045 22.0104 22.0104C23.6045 20.4163 24.5 18.2543 24.5 16C24.5 13.7457 23.6045 11.5837 22.0104 9.98959C20.4163 8.39553 18.2543 7.5 16 7.5C13.7457 7.5 11.5837 8.39553 9.98959 9.98959C8.39553 11.5837 7.5 13.7457 7.5 16C7.5 18.2543 8.39553 20.4163 9.98959 22.0104C11.5837 23.6045 13.7457 24.5 16 24.5ZM15 13.5C14.172 13.5 13.5 14.172 13.5 15V17C13.5 17.828 14.172 18.5 15 18.5H17C17.828 18.5 18.5 17.828 18.5 17V15C18.5 14.172 17.828 13.5 17 13.5H15Z" fill="#D4FFDB"/>
<path d="M37.1948 21V10.766H41.2688C43.2848 10.766 44.5168 11.816 44.5168 13.524C44.5168 14.658 44.0128 15.47 43.0468 15.876C44.1248 16.226 44.6708 17.038 44.6708 18.228C44.6708 19.978 43.4528 21 41.3388 21H37.1948ZM41.1148 12.348H38.9868V15.134H41.1568C42.1368 15.134 42.6828 14.616 42.6828 13.706C42.6828 12.824 42.1228 12.348 41.1148 12.348ZM41.2688 16.646H38.9868V19.418H41.2688C42.2768 19.418 42.8368 18.928 42.8368 18.004C42.8368 17.136 42.2628 16.646 41.2688 16.646ZM50.332 14.084H52.04V21H50.458L50.332 20.076C49.912 20.734 49.016 21.182 48.092 21.182C46.496 21.182 45.558 20.104 45.558 18.41V14.084H47.266V17.808C47.266 19.124 47.784 19.656 48.736 19.656C49.814 19.656 50.332 19.026 50.332 17.71V14.084ZM56.0894 21.182C54.0874 21.182 52.8414 19.712 52.8414 17.57C52.8414 15.414 54.1014 13.874 56.1874 13.874C57.1534 13.874 58.0074 14.28 58.4414 14.966V10.584H60.1354V21H58.5674L58.4554 19.922C58.0354 20.72 57.1394 21.182 56.0894 21.182ZM56.4674 19.614C57.6574 19.614 58.4274 18.76 58.4274 17.514C58.4274 16.268 57.6574 15.4 56.4674 15.4C55.2774 15.4 54.5494 16.282 54.5494 17.514C54.5494 18.746 55.2774 19.614 56.4674 19.614ZM61.1033 17.388C61.1033 15.372 62.4193 13.86 64.3933 13.86C65.4293 13.86 66.2413 14.294 66.6473 15.036L66.7453 14.084H68.3273V20.65C68.3273 22.96 66.9413 24.402 64.7013 24.402C62.7133 24.402 61.3553 23.268 61.1453 21.42H62.8533C62.9653 22.316 63.6513 22.848 64.7013 22.848C65.8773 22.848 66.6333 22.106 66.6333 20.958V19.81C66.1993 20.454 65.3453 20.86 64.3513 20.86C62.3913 20.86 61.1033 19.39 61.1033 17.388ZM62.8253 17.346C62.8253 18.508 63.5673 19.376 64.6873 19.376C65.8633 19.376 66.5913 18.55 66.5913 17.346C66.5913 16.17 65.8773 15.358 64.6873 15.358C63.5533 15.358 62.8253 16.212 62.8253 17.346ZM72.7689 21.182C70.7109 21.182 69.2689 19.684 69.2689 17.542C69.2689 15.372 70.6829 13.874 72.7129 13.874C74.7849 13.874 76.1009 15.26 76.1009 17.416V17.934L70.8929 17.948C71.0189 19.166 71.6629 19.782 72.7969 19.782C73.7349 19.782 74.3509 19.418 74.5469 18.76H76.1289C75.8349 20.272 74.5749 21.182 72.7689 21.182ZM72.7269 15.274C71.7189 15.274 71.1029 15.82 70.9349 16.856H74.4069C74.4069 15.904 73.7489 15.274 72.7269 15.274ZM79.3315 21H77.6235V15.512H76.2935V14.084H77.6235V11.928H79.3315V14.084H80.6755V15.512H79.3315V21ZM83.0393 21H81.3453V10.584H83.0393V21ZM83.809 24.206V22.778H84.831C85.503 22.778 85.923 22.624 86.217 21.812L86.413 21.294L83.627 14.084H85.433L87.211 19.124L89.087 14.084H90.851L87.463 22.54C86.945 23.828 86.217 24.36 85.083 24.36C84.607 24.36 84.187 24.304 83.809 24.206Z" fill="black"/>
</svg>
